<mxfile>
    <diagram id="S-Zho3dxcecjQMznpw1U" name="Page-1">
        <mxGraphModel dx="899" dy="830" grid="0" gridSize="10" guides="1" tooltips="1" connect="1" arrows="1" fold="1" page="1" pageScale="1" pageWidth="827" pageHeight="1169" math="0" shadow="0">
            <root>
                <mxCell id="0"/>
                <mxCell id="1" parent="0"/>
                <mxCell id="8" style="edgeStyle=orthogonalEdgeStyle;rounded=0;orthogonalLoop=1;jettySize=auto;html=1;entryX=0.5;entryY=0;entryDx=0;entryDy=0;" edge="1" parent="1" source="2" target="5">
                    <mxGeometry relative="1" as="geometry">
                        <Array as="points">
                            <mxPoint x="421" y="65"/>
                            <mxPoint x="241" y="65"/>
                        </Array>
                    </mxGeometry>
                </mxCell>
                <mxCell id="2" value="个人信息模块" style="rounded=1;whiteSpace=wrap;html=1;" vertex="1" parent="1">
                    <mxGeometry x="361" y="125" width="120" height="60" as="geometry"/>
                </mxCell>
                <mxCell id="7" style="edgeStyle=orthogonalEdgeStyle;rounded=0;orthogonalLoop=1;jettySize=auto;html=1;entryX=0.425;entryY=1;entryDx=0;entryDy=0;entryPerimeter=0;" edge="1" parent="1" source="4" target="5">
                    <mxGeometry relative="1" as="geometry">
                        <Array as="points">
                            <mxPoint x="591" y="245"/>
                            <mxPoint x="232" y="245"/>
                        </Array>
                    </mxGeometry>
                </mxCell>
                <mxCell id="4" value="个人成绩模块" style="rounded=1;whiteSpace=wrap;html=1;" vertex="1" parent="1">
                    <mxGeometry x="531" y="125" width="120" height="60" as="geometry"/>
                </mxCell>
                <mxCell id="5" value="登录注册模块" style="rounded=1;whiteSpace=wrap;html=1;" vertex="1" parent="1">
                    <mxGeometry x="181" y="125" width="120" height="60" as="geometry"/>
                </mxCell>
                <mxCell id="27" style="edgeStyle=orthogonalEdgeStyle;rounded=0;orthogonalLoop=1;jettySize=auto;html=1;" edge="1" parent="1" source="26">
                    <mxGeometry relative="1" as="geometry">
                        <mxPoint x="208.89999999999998" y="531.4827586206898" as="targetPoint"/>
                    </mxGeometry>
                </mxCell>
                <mxCell id="26" value="" style="aspect=fixed;perimeter=ellipsePerimeter;html=1;align=center;shadow=0;dashed=0;spacingTop=3;image;image=img/lib/active_directory/web_server.svg;" vertex="1" parent="1">
                    <mxGeometry x="180.5" y="405" width="56.8" height="71" as="geometry"/>
                </mxCell>
                <mxCell id="29" style="edgeStyle=orthogonalEdgeStyle;rounded=0;orthogonalLoop=1;jettySize=auto;html=1;" edge="1" parent="1" source="28">
                    <mxGeometry relative="1" as="geometry">
                        <mxPoint x="208.89999999999998" y="671.4827586206898" as="targetPoint"/>
                    </mxGeometry>
                </mxCell>
                <mxCell id="28" value="" style="aspect=fixed;perimeter=ellipsePerimeter;html=1;align=center;shadow=0;dashed=0;spacingTop=3;image;image=img/lib/active_directory/web_server.svg;" vertex="1" parent="1">
                    <mxGeometry x="180.5" y="530" width="56.8" height="71" as="geometry"/>
                </mxCell>
                <mxCell id="30" value="" style="aspect=fixed;perimeter=ellipsePerimeter;html=1;align=center;shadow=0;dashed=0;spacingTop=3;image;image=img/lib/active_directory/web_server.svg;" vertex="1" parent="1">
                    <mxGeometry x="184.5" y="670" width="56.8" height="71" as="geometry"/>
                </mxCell>
                <mxCell id="31" value="Nginx" style="text;html=1;strokeColor=none;fillColor=none;align=center;verticalAlign=middle;whiteSpace=wrap;rounded=0;" vertex="1" parent="1">
                    <mxGeometry x="124.5" y="437" width="40" height="20" as="geometry"/>
                </mxCell>
                <mxCell id="32" value="Web 服务器" style="text;html=1;strokeColor=none;fillColor=none;align=center;verticalAlign=middle;whiteSpace=wrap;rounded=0;" vertex="1" parent="1">
                    <mxGeometry x="103.5" y="562" width="68" height="19" as="geometry"/>
                </mxCell>
                <mxCell id="33" value="MySQL" style="text;html=1;strokeColor=none;fillColor=none;align=center;verticalAlign=middle;whiteSpace=wrap;rounded=0;" vertex="1" parent="1">
                    <mxGeometry x="124.5" y="691" width="40" height="20" as="geometry"/>
                </mxCell>
                <mxCell id="37" style="edgeStyle=orthogonalEdgeStyle;rounded=0;orthogonalLoop=1;jettySize=auto;html=1;entryX=1.003;entryY=0.411;entryDx=0;entryDy=0;entryPerimeter=0;" edge="1" parent="1" source="34" target="35">
                    <mxGeometry relative="1" as="geometry"/>
                </mxCell>
                <mxCell id="34" value="Model" style="rounded=1;whiteSpace=wrap;html=1;" vertex="1" parent="1">
                    <mxGeometry x="620" y="604" width="120" height="60" as="geometry"/>
                </mxCell>
                <mxCell id="35" value="View" style="rounded=1;whiteSpace=wrap;html=1;" vertex="1" parent="1">
                    <mxGeometry x="380" y="610" width="120" height="60" as="geometry"/>
                </mxCell>
                <mxCell id="38" style="rounded=0;orthogonalLoop=1;jettySize=auto;html=1;" edge="1" parent="1" source="36" target="34">
                    <mxGeometry relative="1" as="geometry"/>
                </mxCell>
                <mxCell id="39" style="rounded=0;orthogonalLoop=1;jettySize=auto;html=1;" edge="1" parent="1" source="36" target="35">
                    <mxGeometry relative="1" as="geometry"/>
                </mxCell>
                <mxCell id="36" value="Controller" style="rounded=1;whiteSpace=wrap;html=1;" vertex="1" parent="1">
                    <mxGeometry x="500" y="448" width="120" height="60" as="geometry"/>
                </mxCell>
                <mxCell id="40" value="业务逻辑角度" style="text;html=1;strokeColor=none;fillColor=none;align=center;verticalAlign=middle;whiteSpace=wrap;rounded=0;fontSize=16;" vertex="1" parent="1">
                    <mxGeometry x="359" y="268" width="110" height="28" as="geometry"/>
                </mxCell>
                <mxCell id="41" value="物理部署角度" style="text;html=1;strokeColor=none;fillColor=none;align=center;verticalAlign=middle;whiteSpace=wrap;rounded=0;fontSize=16;" vertex="1" parent="1">
                    <mxGeometry x="143" y="794" width="110" height="28" as="geometry"/>
                </mxCell>
                <mxCell id="42" value="开发规范角度" style="text;html=1;strokeColor=none;fillColor=none;align=center;verticalAlign=middle;whiteSpace=wrap;rounded=0;fontSize=16;" vertex="1" parent="1">
                    <mxGeometry x="529" y="794" width="110" height="28" as="geometry"/>
                </mxCell>
            </root>
        </mxGraphModel>
    </diagram>
</mxfile>